<svg width="700" height="374" viewBox="0 0 700 374" fill="none" xmlns="http://www.w3.org/2000/svg">
<path d="M221.52 337.051V337.816C220.984 348.144 217.31 356.558 207.742 361.225C193.198 368.339 173.067 361.454 170.924 341.029C169.929 331.926 172.072 323.741 179.114 317.621C186.922 310.812 196.031 309.665 205.599 313.107C214.861 316.397 219.683 323.511 221.214 333.073C221.367 334.45 221.443 335.827 221.52 337.051ZM231.93 372.623V273.405H221.596V311.577C219.759 309.894 217.769 308.364 215.396 306.988C207.895 302.627 199.705 301.327 191.132 302.321C182.559 303.316 175.057 306.605 169.24 313.107C162.045 320.987 159.748 330.549 160.514 340.953C161.126 349.291 164.112 356.711 170.005 362.755C180.722 373.771 200.011 376.524 214.095 368.875C217.004 367.268 219.53 365.509 221.673 363.443V372.623H231.93V372.623Z" fill="#124680"/>
<path d="M343.915 336.669C343.762 348.679 340.164 358.394 331.132 365.585C323.324 371.781 314.292 373.694 304.494 372.929C296.074 372.24 288.65 369.257 282.526 363.29C276.249 357.17 273.111 349.52 272.499 340.876C271.733 330.549 274.03 321.063 281.148 313.184C287.042 306.681 294.543 303.316 303.193 302.321C311.613 301.327 319.727 302.551 327.151 306.834C336.796 312.342 342.001 320.987 343.532 331.849C343.685 333.685 343.762 335.521 343.915 336.669ZM333.581 337.357C333.428 336.133 333.428 334.68 333.198 333.15C331.744 323.511 326.845 316.397 317.507 313.031C307.862 309.588 298.6 310.812 290.793 317.85C284.057 323.97 281.99 332.002 282.909 340.876C285.052 361.684 305.719 368.416 320.339 360.919C329.601 356.176 333.198 347.761 333.581 337.357Z" fill="#124680"/>
<path d="M260.711 373.159C260.251 373.235 259.945 373.235 259.563 373.235C256.654 373.235 253.745 373.235 250.76 373.235V302.933H260.711V373.159Z" fill="#124680"/>
<path d="M248.846 282.508C248.846 278.301 251.678 275.317 255.659 275.394C259.486 275.47 262.318 278.454 262.318 282.508C262.318 286.716 259.486 289.546 255.429 289.546C251.449 289.546 248.846 286.716 248.846 282.508Z" fill="#124680"/>
<path d="M491.186 337.281C490.804 351.204 485.675 362.143 473.275 368.875C459.191 376.525 439.902 373.771 429.185 362.755C423.291 356.712 420.383 349.291 419.694 340.953C418.928 330.549 421.225 321.063 428.42 313.107C434.314 306.605 441.739 303.316 450.312 302.321C458.885 301.327 467.075 302.551 474.576 306.988C484.068 312.572 489.196 321.063 490.651 331.85C490.957 333.686 491.033 335.598 491.186 337.281ZM480.853 337.281C480.7 335.98 480.623 334.527 480.394 332.997C478.863 323.435 474.04 316.32 464.779 313.031C455.211 309.589 446.102 310.736 438.294 317.544C431.252 323.741 429.185 331.926 430.104 340.953C432.247 361.378 452.455 368.186 466.922 361.148C476.72 356.482 480.47 347.914 480.853 337.281Z" fill="#124680"/>
<path d="M61.2356 338.352V338.581C60.7763 348.909 57.0257 357.324 47.4576 361.99C32.9141 369.104 12.7829 362.219 10.6397 341.794C9.64459 332.691 11.7878 324.506 18.8299 318.386C26.6375 311.578 35.7463 310.43 45.3144 313.872C54.5762 317.162 59.3985 324.276 60.9294 333.839C61.1591 335.292 61.2356 336.822 61.3887 338.122C61.2356 338.199 61.2356 338.275 61.2356 338.352ZM71.5691 338.352C71.5691 338.275 71.5691 338.122 71.5691 338.046C71.416 336.363 71.3395 334.451 71.1099 332.615C69.6555 321.828 64.527 313.337 55.0355 307.753C47.5341 303.392 39.3439 302.168 30.7709 303.086C22.1979 304.081 14.6965 307.37 8.87914 313.872C1.68395 321.752 -0.612385 331.314 0.15306 341.718C0.765417 350.056 3.75066 357.477 9.64459 363.52C20.3608 374.536 39.65 377.29 53.7342 369.64C56.6429 368.033 59.1689 366.274 61.3122 364.208V373.388H71.6457V338.352H71.5691Z" fill="#124680"/>
<path d="M557.857 337.051V337.816C557.397 348.144 553.647 356.558 544.079 361.225C529.535 368.339 509.404 361.454 507.261 341.029C506.266 331.926 508.409 323.741 515.451 317.621C523.259 310.812 532.367 309.665 541.935 313.107C551.197 316.397 556.02 323.511 557.551 333.073C557.627 334.45 557.78 335.827 557.857 337.051ZM568.19 372.623V273.405H557.857V311.577C556.02 309.894 554.03 308.364 551.657 306.988C544.155 302.627 535.965 301.327 527.392 302.321C518.819 303.316 511.318 306.605 505.5 313.107C498.305 320.987 496.009 330.549 496.774 340.953C497.387 349.291 500.372 356.711 506.266 362.755C516.982 373.771 536.271 376.524 550.355 368.875C553.264 367.268 555.79 365.509 557.933 363.443V372.623H568.19V372.623Z" fill="#124680"/>
<path d="M385.096 312.648C370.629 312.648 360.219 323.282 360.219 338.658C360.219 354.187 370.552 364.82 385.096 364.82C394.281 364.82 401.859 361.607 406.758 355.793L412.728 361.913C406.452 369.487 396.807 374 384.713 374C364.352 374 350.038 359.542 350.038 338.658C350.038 317.927 364.505 303.316 384.713 303.316C396.041 303.316 405.303 307.141 411.657 313.643L405.916 320.834C400.634 315.708 393.592 312.648 385.096 312.648Z" fill="#124680"/>
<path d="M149.874 307.064V373.617H139.464V364.285C133.264 370.175 125.457 373.923 112.827 374C96.4461 374 86.5719 363.596 86.5719 346.69V307.064H96.982V344.013C96.982 356.558 103.106 364.591 115.276 364.591C129.82 364.361 139.464 353.039 139.464 337.893V307.064H149.874Z" fill="#124680"/>
<path d="M643.893 341.871H585.796C587.556 355.946 597.66 365.126 611.591 365.126C620.394 365.126 628.048 361.913 633.636 356.099L639.453 362.143C632.717 369.563 622.69 373.923 610.826 373.923C589.852 373.923 575.385 359.236 575.385 337.969C575.385 316.779 590.006 302.168 610.673 302.015C633.636 302.015 644.965 317.85 643.893 341.871ZM634.401 333.532C633.712 319.763 624.527 310.812 610.596 310.812C596.971 310.812 587.25 319.763 585.719 333.532H634.401Z" fill="#124680"/>
<path d="M674.664 310.812C666.78 310.812 660.809 313.643 660.809 320.298C660.809 336.133 699.924 328.024 699.924 353.192C699.924 366.886 687.676 373.005 674.205 373.005C664.254 373.005 653.997 369.563 647.337 363.137L651.318 355.564C657.288 361.148 666.397 364.514 674.587 364.514C682.854 364.514 689.513 361.301 689.667 354.263C690.049 337.204 650.782 345.849 650.935 321.14C650.935 307.829 662.493 302.092 675.276 302.092C683.696 302.092 691.81 304.616 697.627 308.517L693.647 316.473C688.289 312.954 681.247 310.812 674.664 310.812Z" fill="#124680"/>
<path d="M347.283 28.2279C347.283 28.2279 375.374 0 427.884 0C449.24 0 487.359 6.34936 512.925 46.1285L471.668 76.5748C471.668 76.5748 460.186 53.3193 426.812 53.3193C404.691 53.3193 384.483 65.559 379.431 85.2956C369.863 46.8169 347.283 28.2279 347.283 28.2279Z" fill="#33A3DC"/>
<path d="M410.968 166.537C410.968 166.537 410.661 179.694 414.565 195.223C417.78 207.922 423.904 220.238 423.904 220.238C423.904 220.238 487.971 223.987 515.604 172.503L473.351 144.276C473.428 144.352 456.741 181.683 410.968 166.537Z" fill="#33A3DC"/>
<path d="M404.079 165.007C383.948 154.832 375.375 131.041 375.375 111.458C375.375 50.7947 327.993 1.68286 261.553 1.68286C196.643 1.68286 146.966 37.1781 146.966 115.359C146.966 216.719 267.6 249.078 338.25 193.999C323.018 177.323 313.297 157.892 309.317 135.478C291.635 181.76 233.078 181.836 215.779 146.112C197.638 108.627 208.89 55.6906 261.17 55.6906C298.141 55.6906 312.378 84.148 312.378 108.78C312.378 168.832 353.406 220.315 415.407 220.315C412.881 213.43 408.978 204.786 406.681 193.234C403.696 178.853 404.079 165.007 404.079 165.007Z" fill="#124680"/>
</svg>
